<svg width="50" height="50" viewBox="0 0 50 50" fill="none" xmlns="http://www.w3.org/2000/svg">
<g clip-path="url(#clip0_967_118)">
<path d="M35.4503 2.67768V0.377106C35.4396 0.00823636 36.0938 0.00823636 36.083 0.377106V2.67768C36.083 3.04656 35.4503 3.05626 35.4503 2.67768ZM32.383 46.5829H17.6903C16.3175 46.5829 15.2021 47.5924 15.2021 48.8349V49.602H34.8819V48.8349C34.8712 47.5924 33.7558 46.5829 32.383 46.5829ZM21.0042 41.8749V45.4665H29.0691V41.8749H21.0042ZM0.28418 38.7395C0.28418 39.8461 1.28157 40.7489 2.50418 40.7489H47.5691C48.7917 40.7489 49.789 39.8461 49.789 38.7395V35.8177H0.28418V38.7395ZM47.5691 9.1038H43.8155V10.7831H47.3117C47.6549 10.7831 47.9338 11.0355 47.9338 11.3461V34.6917H49.789V11.1132C49.789 10.0065 48.8025 9.1038 47.5691 9.1038ZM6.10769 11.9092H3.3836V34.7014H46.7005V11.9092H43.8262V25.9165C43.8369 27.5278 42.3677 28.8674 40.5552 28.8674H9.36793C7.5662 28.8674 6.09694 27.5278 6.10769 25.9165V11.9092ZM25.2833 2.67768C25.2833 2.67768 25.2833 0.39652 25.2833 0.377106C25.2833 0.00823636 24.6506 -0.00147073 24.6506 0.377106V2.67768C24.6506 3.05626 25.2726 3.04656 25.2833 2.67768ZM14.4729 2.67768C14.4729 2.67768 14.4729 0.39652 14.4729 0.377106C14.4729 -0.00147073 13.8401 0.00823636 13.8509 0.377106V2.67768C13.8509 3.04656 14.4729 3.05626 14.4729 2.67768ZM42.5822 3.92019C42.5822 2.91066 41.6706 2.08555 40.5552 2.08555H37.3163V2.67768C37.3163 3.45425 36.6193 4.08521 35.7613 4.08521C34.9033 4.08521 34.2062 3.45425 34.2062 2.67768V2.08555H26.506V2.67768C26.506 3.45425 25.8088 4.08521 24.9509 4.08521C24.0929 4.08521 23.3958 3.45425 23.3958 2.67768V2.08555H15.6955V2.67768C15.6955 3.45425 14.9984 4.08521 14.1511 4.08521C13.2932 4.08521 12.5961 3.45425 12.5961 2.67768V2.08555H9.37868C8.25259 2.08555 7.341 2.91066 7.341 3.92019V5.58979H42.5822V3.92019ZM2.13954 11.3461C2.13954 11.0355 2.41838 10.7831 2.76157 10.7831H6.10769V9.1038H2.50418C1.28157 9.1038 0.28418 10.0065 0.28418 11.1132V34.6917H2.13954V11.3461ZM7.341 25.9165V6.70613H42.5822V25.9165C42.5822 26.9163 41.6813 27.7414 40.5552 27.7414H9.36793C8.24184 27.7511 7.341 26.926 7.341 25.9165ZM23.503 23.6838L23.5138 22.0336H25.3477C25.5943 22.5772 26.5488 22.4025 26.5274 21.8103C26.5488 21.325 26.0769 20.8979 25.5407 20.9173H23.2671C22.7201 20.9173 22.2804 21.3153 22.2804 21.8103L22.2697 23.8683C22.2482 24.3536 22.7309 24.771 23.2563 24.7613C23.9106 24.771 24.0929 23.8974 23.503 23.6838ZM36.9517 21.9268L34.528 23.4314L33.8201 22.5869C33.3268 22.0045 32.3509 22.6743 32.8335 23.2664L33.9059 24.5284C34.0346 24.674 34.2062 24.7516 34.3993 24.7516C34.5172 24.7516 34.646 24.7225 34.7424 24.6545L37.6488 22.849C38.3245 22.4316 37.6274 21.5094 36.9517 21.9268ZM31.1819 11.4917C31.1819 11.7344 31.2784 11.9577 31.4714 12.1324C31.6538 12.2974 31.9111 12.3945 32.1685 12.3945H34.4422C34.9891 12.3945 35.4288 11.9868 35.4288 11.5014L35.4396 9.44351C35.4503 8.95816 34.9891 8.53108 34.4529 8.55049H32.1793C31.6323 8.55049 31.1926 8.94846 31.1926 9.44351L31.1819 11.4917ZM31.1497 17.6751C31.1497 17.9081 31.2462 18.1411 31.4393 18.3061C31.6323 18.4711 31.879 18.5682 32.1471 18.5682H34.4207C34.9677 18.5682 35.4074 18.1605 35.4074 17.6751L35.4181 15.6172C35.4288 15.1319 34.9569 14.7047 34.4314 14.7242H32.1578C31.6109 14.7242 31.1711 15.1222 31.1711 15.6172L31.1497 17.6751ZM31.1282 23.8586C31.1175 24.3439 31.5894 24.7613 32.1149 24.7516C32.7799 24.7613 32.9621 23.9071 32.3616 23.6741L32.3723 22.0239H34.2062C34.4636 22.5578 35.4074 22.3928 35.3966 21.8006C35.3966 21.558 35.3001 21.3347 35.1071 21.1697C34.9141 20.9949 34.6674 20.9076 34.3993 20.9076H32.1257C31.5894 20.9076 31.139 21.3056 31.139 21.8006L31.1282 23.8586ZM28.0932 21.9268L25.6694 23.4314L24.9616 22.5869C24.4682 22.0045 23.4923 22.6743 23.9749 23.2664L25.0474 24.5381C25.1654 24.674 25.3477 24.7613 25.5407 24.7613C25.6694 24.7613 25.7874 24.7322 25.8946 24.6643L28.801 22.8587C29.4552 22.4316 28.7581 21.5094 28.0932 21.9268ZM28.061 15.7434L25.6372 17.248L24.9187 16.4035C24.4254 15.8211 23.4494 16.4909 23.932 17.083L25.0045 18.3449C25.2082 18.5876 25.5729 18.6458 25.8517 18.4711L28.7688 16.6656C29.0477 16.4909 29.1227 16.1414 28.919 15.8891C28.7366 15.6366 28.3506 15.5687 28.061 15.7434ZM22.259 11.5014C22.259 11.7344 22.3662 11.9674 22.5485 12.1324C22.7309 12.2974 22.9775 12.3945 23.2457 12.3945H25.5193C26.0662 12.3945 26.506 11.9868 26.506 11.5014L26.5166 9.44351C26.5274 8.95816 26.0662 8.53108 25.53 8.55049H23.2563C22.7094 8.55049 22.2697 8.94846 22.2697 9.44351L22.259 11.5014ZM22.2375 17.6751C22.2268 18.1605 22.6987 18.5779 23.2242 18.5682C23.8891 18.5779 24.0714 17.7237 23.4709 17.4907L23.4816 15.8405H25.3048C25.5514 16.3744 26.5166 16.2093 26.4952 15.6172C26.4952 15.3745 26.3987 15.1513 26.2057 14.9766C26.0233 14.8115 25.7766 14.7145 25.5085 14.7145H23.2349C22.688 14.7145 22.2482 15.1125 22.2482 15.6075L22.2375 17.6751ZM13.3468 11.5014C13.3361 11.9771 13.8079 12.4042 14.3335 12.3945H16.6071C17.154 12.3945 17.5938 11.9868 17.5938 11.5014L17.6045 9.44351C17.6045 9.20083 17.5079 8.97757 17.3149 8.80286C17.1326 8.63786 16.8859 8.54078 16.6178 8.54078H14.3442C13.7972 8.54078 13.3575 8.93875 13.3575 9.4338L13.3468 11.5014ZM13.3254 17.6751C13.3146 18.1605 13.7758 18.5779 14.312 18.5682H16.5857C17.1326 18.5682 17.5723 18.1605 17.5723 17.6751L17.583 15.6172C17.583 15.3745 17.4865 15.1513 17.2935 14.9766C17.1111 14.8115 16.8538 14.7145 16.5963 14.7145H14.3227C13.7758 14.7145 13.3361 15.1125 13.3361 15.6075L13.3254 17.6751ZM13.3039 23.8586C13.2824 24.3439 13.7651 24.7613 14.2906 24.7516H16.5642C17.1112 24.7516 17.5509 24.3439 17.5509 23.8586L17.5616 21.8006C17.5723 21.558 17.4651 21.3347 17.272 21.16C17.0897 20.9949 16.843 20.8979 16.5749 20.8979H14.3013C13.7543 20.8979 13.3146 21.2959 13.3146 21.7909L13.3039 23.8586ZM34.1848 15.8502H32.4045L32.3938 17.4616H34.1741L34.1848 15.8502ZM34.1955 9.66677H32.4152L32.4045 11.2782H34.1848L34.1955 9.66677ZM25.2941 9.66677H23.5138L23.503 11.2782H25.2833L25.2941 9.66677ZM16.3282 22.0239H14.5479L14.5372 23.6353H16.3175L16.3282 22.0239ZM16.3497 15.8502H14.5694L14.5587 17.4616H16.3497V15.8502ZM16.3711 9.66677H14.5909L14.5801 11.2782H16.3604L16.3711 9.66677Z" fill="#303BFF"/>
</g>
<defs>
<clipPath id="clip0_967_118">
<rect width="50" height="50" fill="white"/>
</clipPath>
</defs>
</svg>
